<svg width="42" height="42" viewBox="0 0 42 42" fill="none" xmlns="http://www.w3.org/2000/svg">
<path d="M28.4638 16.4062C28.4638 18.4203 26.8883 20 25.0092 20C23.1301 20 21.5547 18.4203 21.5547 16.4062C21.5547 14.3922 23.1301 12.8125 25.0092 12.8125C26.8883 12.8125 28.4638 14.3922 28.4638 16.4062Z" stroke="#363636" stroke-width="2"/>
<path d="M19.5546 25.5938C19.5546 27.6078 17.9792 29.1875 16.1001 29.1875C14.2209 29.1875 12.6455 27.6078 12.6455 25.5938C12.6455 23.5797 14.2209 22 16.1001 22C17.9792 22 19.5546 23.5797 19.5546 25.5938Z" stroke="#363636" stroke-width="2"/>
<path d="M7.19141 16.4062H20.555" stroke="#363636" stroke-width="2" stroke-linecap="round"/>
<path d="M20.5547 25.5938H33.0274" stroke="#363636" stroke-width="2" stroke-linecap="round"/>
</svg>
