<svg width="390" height="60" viewBox="0 0 390 60" fill="none" xmlns="http://www.w3.org/2000/svg">
<rect x="0.5" y="0.5" width="389" height="59" rx="4.5" fill="white" stroke="#747775"/>
<mask id="mask0_113_2664" style="mask-type:luminance" maskUnits="userSpaceOnUse" x="16" y="18" width="24" height="24">
<path d="M40 18H16V42H40V18Z" fill="white"/>
</mask>
<g mask="url(#mask0_113_2664)">
<path d="M39.52 30.2726C39.52 29.4217 39.4437 28.6035 39.3018 27.818H28V32.4598H34.4582C34.18 33.9598 33.3346 35.2308 32.0637 36.0817V39.0926H35.9418C38.2109 37.0035 39.52 33.9271 39.52 30.2726Z" fill="#4285F4"/>
<path d="M27.9999 41.9999C31.2399 41.9999 33.9562 40.9253 35.9416 39.0927L32.0634 36.0817C30.9889 36.8017 29.6143 37.2271 27.9999 37.2271C24.8743 37.2271 22.2289 35.1162 21.2853 32.2799H17.2762V35.389C19.2508 39.3108 23.3089 41.9999 27.9999 41.9999Z" fill="#34A853"/>
<path d="M21.2854 32.2802C21.0454 31.5602 20.9091 30.7911 20.9091 30.0002C20.9091 29.2092 21.0454 28.4402 21.2854 27.7202V24.6111H17.2763C16.4637 26.2311 16 28.0638 16 30.0002C16 31.9365 16.4637 33.7692 17.2763 35.3892L21.2854 32.2802Z" fill="#FBBC04"/>
<path d="M27.9999 22.7728C29.7616 22.7728 31.3434 23.3782 32.5871 24.5672L36.0289 21.1254C33.9508 19.1891 31.2343 18 27.9999 18C23.3089 18 19.2508 20.6891 17.2762 24.6109L21.2853 27.72C22.2289 24.8837 24.8743 22.7728 27.9999 22.7728Z" fill="#E94235"/>
</g>
<path d="M128.736 23.194H138.906V24.4H128.736V23.194ZM126.9 30.178H141.606V31.402H126.9V30.178ZM133.47 30.988H134.964V38.422H133.47V30.988ZM138.204 23.194H139.662V24.598C139.662 26.29 139.662 28.198 139.05 30.952L137.574 30.754C138.204 28.126 138.204 26.236 138.204 24.598V23.194ZM145.331 22.816H155.807V24.022H145.331V22.816ZM143.459 28.18H158.201V29.404H143.459V28.18ZM154.835 22.816H156.293V23.86C156.293 25.03 156.293 26.542 155.861 28.558L154.403 28.396C154.835 26.416 154.835 25.012 154.835 23.86V22.816ZM145.187 31.006H156.347V35.146H146.717V37.414H145.223V33.994H154.871V32.212H145.187V31.006ZM145.223 37.018H156.761V38.224H145.223V37.018ZM171.081 26.65H174.699V27.856H171.081V26.65ZM170.955 30.736H174.663V31.942H170.955V30.736ZM177.165 22.132H178.605V38.404H177.165V22.132ZM173.907 22.546H175.311V37.576H173.907V22.546ZM170.271 24.184H171.711C171.711 28.45 170.001 32.284 165.627 34.894L164.763 33.832C168.561 31.528 170.271 28.288 170.271 24.454V24.184ZM165.483 24.184H170.865V25.408H165.483V24.184ZM190.015 26.344H193.687V27.586H190.015V26.344ZM193.219 22.132H194.713V31.834H193.219V22.132ZM189.367 32.32C192.715 32.32 194.785 33.454 194.785 35.362C194.785 37.288 192.715 38.386 189.367 38.386C186.001 38.386 183.931 37.288 183.931 35.362C183.931 33.454 186.001 32.32 189.367 32.32ZM189.367 33.49C186.919 33.49 185.425 34.174 185.425 35.362C185.425 36.532 186.919 37.216 189.367 37.216C191.815 37.216 193.309 36.532 193.309 35.362C193.309 34.174 191.815 33.49 189.367 33.49ZM185.479 23.77H186.703V25.084C186.703 28.09 184.867 30.664 182.167 31.672L181.393 30.484C183.805 29.602 185.479 27.424 185.479 25.084V23.77ZM185.767 23.77H186.973V25.084C186.973 27.19 188.557 29.206 190.915 30.034L190.159 31.222C187.513 30.268 185.767 27.82 185.767 25.084V23.77ZM181.843 23.32H190.537V24.544H181.843V23.32ZM205.242 23.158C208.626 23.158 211.146 24.958 211.146 27.658C211.146 30.376 208.626 32.158 205.242 32.158C201.858 32.158 199.32 30.376 199.32 27.658C199.32 24.958 201.858 23.158 205.242 23.158ZM205.242 24.382C202.668 24.382 200.76 25.696 200.76 27.658C200.76 29.602 202.668 30.934 205.242 30.934C207.816 30.934 209.724 29.602 209.724 27.658C209.724 25.696 207.816 24.382 205.242 24.382ZM197.898 35.002H212.64V36.262H197.898V35.002ZM214.457 35.164H229.199V36.406H214.457V35.164ZM221.045 31.672H222.539V35.686H221.045V31.672ZM216.239 23.338H227.381V28.27H217.769V31.528H216.293V27.064H225.905V24.544H216.239V23.338ZM216.293 30.898H227.759V32.122H216.293V30.898ZM235.779 35.164H250.521V36.406H235.779V35.164ZM242.367 31.672H243.861V35.686H242.367V31.672ZM237.561 23.338H248.703V28.27H239.091V31.528H237.615V27.064H247.227V24.544H237.561V23.338ZM237.615 30.898H249.081V32.122H237.615V30.898ZM253.922 23.86H264.398V25.066H253.922V23.86ZM252.338 34.786H267.044V36.028H252.338V34.786ZM263.606 23.86H265.064V25.48C265.064 27.568 265.064 29.89 264.452 33.4L262.958 33.256C263.606 29.926 263.606 27.496 263.606 25.48V23.86ZM280.722 22.15H282.234V34.03H280.722V22.15ZM271.776 36.82H282.72V38.044H271.776V36.82ZM271.776 32.806H273.252V37.234H271.776V32.806ZM273.504 23.266C275.934 23.266 277.734 24.922 277.734 27.28C277.734 29.62 275.934 31.294 273.504 31.294C271.074 31.294 269.256 29.62 269.256 27.28C269.256 24.922 271.074 23.266 273.504 23.266ZM273.504 24.562C271.92 24.562 270.714 25.678 270.714 27.28C270.714 28.864 271.92 29.98 273.504 29.98C275.088 29.98 276.294 28.864 276.294 27.28C276.294 25.678 275.088 24.562 273.504 24.562Z" fill="black"/>
</svg>
