<svg width="22" height="22" viewBox="0 0 22 22" fill="none" xmlns="http://www.w3.org/2000/svg">
<path d="M4.99999 4.00003C7.39999 2.80003 9.66666 4.83337 10.5 6.00003C10.5 8.00003 11.4 4.80003 15 4.00003C18.6 3.20003 19.5 8.00003 19.5 10.5L11 18.5C8.83333 16.5 4.19999 12.1 2.99999 10.5C1.49999 8.50003 1.99999 5.50003 4.99999 4.00003Z" fill="#FFD600"/>
<path d="M6.49822 3.38489C5.20909 3.38489 3.92301 3.87207 2.94159 4.83811C0.9788 6.77036 0.9812 9.89881 2.94159 11.8323L10.536 19.3308C10.6581 19.4508 10.8238 19.5182 10.9966 19.5182C11.1694 19.5182 11.3353 19.4508 11.4574 19.3308C13.9925 16.835 16.5301 14.3414 19.065 11.8456C21.0278 9.91333 21.0278 6.77692 19.065 4.84493C17.1022 2.91294 13.9078 2.91268 11.9447 4.84493L11.0098 5.77395L10.0614 4.83826C9.07993 3.87207 7.78704 3.38504 6.49791 3.38504L6.49822 3.38489ZM6.49822 4.6457C7.44936 4.6457 8.40507 5.01023 9.14029 5.73395L10.5493 7.12081C10.6713 7.24079 10.8372 7.30818 11.0101 7.30818C11.1829 7.30818 11.3486 7.24079 11.4706 7.12081L12.8662 5.74062C14.3367 4.29302 16.6731 4.29302 18.1434 5.74062C19.6137 7.18823 19.6138 9.4955 18.1434 10.9431C15.7613 13.2882 13.3784 15.6387 10.9965 17.984L3.86308 10.9367C2.39355 9.48716 2.39266 7.18182 3.86308 5.73418C4.59829 5.01045 5.54719 4.64593 6.49834 4.64593L6.49822 4.6457Z" fill="#6D6D6D" stroke="#6D6D6D"/>
</svg>
