<svg width="278" height="30" viewBox="0 0 278 30" fill="none" xmlns="http://www.w3.org/2000/svg">
<g clip-path="url(#clip0_113_2653)">
<path d="M136.153 29.3889C136.699 29.3889 137.09 29.2748 137.335 29.0426C137.58 28.8104 137.701 28.4397 137.701 27.9223V22.7485L144.235 14.3563C144.867 13.513 145.297 12.7797 145.525 12.1564C145.753 11.5331 145.869 10.5961 145.869 9.34544V1.5236C145.869 1.00622 145.749 0.635497 145.504 0.403286C145.258 0.171075 144.867 0.0570068 144.321 0.0570068H137.916C137.37 0.0570068 136.978 0.171075 136.733 0.403286C136.488 0.635497 136.368 1.00622 136.368 1.5236V8.20475C136.368 8.4777 136.355 8.76287 136.325 9.06027C136.295 9.35766 136.183 9.64283 135.981 9.91578L134.003 12.849C133.862 13.0934 133.711 13.2686 133.552 13.3786C133.393 13.4886 133.199 13.5415 132.972 13.5415H132.542C132.314 13.5415 132.12 13.4886 131.961 13.3786C131.802 13.2686 131.652 13.0934 131.51 12.849L129.532 9.91578C129.33 9.64283 129.218 9.35766 129.188 9.06027C129.158 8.76287 129.145 8.4777 129.145 8.20475V1.5236C129.145 1.00622 129.025 0.635497 128.78 0.403286C128.535 0.171075 128.144 0.0570068 127.598 0.0570068H120.977C120.431 0.0570068 120.04 0.171075 119.795 0.403286C119.55 0.635497 119.429 1.00622 119.429 1.5236V9.34544C119.429 10.5961 119.537 11.5331 119.752 12.1564C119.967 12.7797 120.405 13.513 121.063 14.3563L127.641 22.7077V27.9223C127.641 28.4397 127.761 28.8104 128.006 29.0426C128.251 29.2748 128.642 29.3889 129.188 29.3889H136.153Z" fill="#363636"/>
<path d="M268.996 29.3889C271.747 29.3889 273.918 28.7697 275.509 27.5353C277.099 26.3009 277.895 24.5288 277.895 22.2189V17.9413C277.895 15.6599 277.28 14.0304 276.046 13.0527C274.812 12.0749 273.196 11.4516 271.188 11.1787L264.782 10.3639C264.408 10.3354 264.125 10.2009 263.923 9.95652C263.721 9.71209 263.622 9.41469 263.622 9.06027C263.622 8.70584 263.721 8.41659 263.923 8.18438C264.125 7.95217 264.408 7.8381 264.782 7.8381H274.799C275.345 7.8381 275.737 7.72403 275.982 7.49182C276.227 7.25961 276.347 6.88889 276.347 6.37151V1.5236C276.347 1.00622 276.227 0.635497 275.982 0.403286C275.737 0.171075 275.345 0.0570068 274.799 0.0570068H262.762C259.98 0.0570068 257.805 0.676236 256.227 1.91062C254.649 3.145 253.863 4.91714 253.863 7.22702V11.5046C253.863 13.786 254.473 15.4155 255.69 16.3932C256.906 17.371 258.519 17.9943 260.526 18.2672L266.975 19.1227C267.349 19.1512 267.628 19.2735 267.813 19.4894C267.998 19.7053 268.093 20.0475 268.093 20.5078C268.093 20.8338 267.998 21.1108 267.813 21.343C267.628 21.5752 267.349 21.6893 266.975 21.6893H255.41C254.864 21.6893 254.473 21.8033 254.228 22.0355C253.983 22.2678 253.863 22.6385 253.863 23.1559V27.9223C253.863 28.4397 253.983 28.8104 254.228 29.0426C254.473 29.2748 254.864 29.3889 255.41 29.3889H268.996Z" fill="#363636"/>
<path d="M241.137 0.0570068C240.591 0.0570068 240.2 0.171075 239.955 0.403286C239.71 0.635497 239.59 1.00622 239.59 1.5236V16.5155L237.096 11.3824C236.868 10.922 236.567 10.5961 236.193 10.4046C235.819 10.2132 235.364 10.1195 234.818 10.1195H233.012C232.466 10.1195 232.01 10.2132 231.636 10.4046C231.262 10.5961 230.961 10.922 230.733 11.3824L228.24 16.5155V1.5236C228.24 1.00622 228.12 0.635497 227.874 0.403286C227.629 0.171075 227.238 0.0570068 226.692 0.0570068H220.072C219.526 0.0570068 219.134 0.171075 218.889 0.403286C218.644 0.635497 218.524 1.00622 218.524 1.5236V17.2487C218.524 18.1165 218.558 18.9272 218.631 19.6727C218.704 20.4182 218.924 21.2941 219.298 22.3004L221.447 27.9223C221.589 28.3582 221.826 28.7086 222.157 28.9815C222.488 29.2545 222.879 29.3889 223.339 29.3889H229.014C229.474 29.3889 229.861 29.287 230.175 29.0833C230.488 28.8797 230.703 28.5741 230.819 28.1667L232.84 21.5263C232.926 21.2534 233.033 21.07 233.162 20.9763C233.291 20.8826 233.442 20.8338 233.614 20.8338H234.001C234.173 20.8338 234.323 20.8826 234.452 20.9763C234.581 21.07 234.689 21.2534 234.775 21.5263L236.752 28.1667C236.868 28.6026 237.109 28.9122 237.483 29.1037C237.857 29.2952 238.27 29.3889 238.73 29.3889H244.448C244.908 29.3889 245.273 29.2463 245.544 28.9611C245.815 28.676 246.025 28.3297 246.167 27.9223L248.317 22.3818C248.691 21.3756 248.91 20.4997 248.983 19.7542C249.056 19.0087 249.091 18.198 249.091 17.3302V1.5236C249.091 1.00622 248.97 0.635497 248.725 0.403286C248.48 0.171075 248.089 0.0570068 247.543 0.0570068H241.137Z" fill="#363636"/>
<path d="M55.6735 21.6893V1.5236C55.6735 1.00622 55.5531 0.635497 55.3081 0.403286C55.063 0.171075 54.6718 0.0570068 54.1258 0.0570068H47.5912C47.0452 0.0570068 46.654 0.171075 46.4089 0.403286C46.1639 0.635497 46.0435 1.00622 46.0435 1.5236V20.1005C46.0435 20.6423 45.8285 21.0986 45.3986 21.4652C44.9687 21.8319 43.9928 22.0152 42.4752 22.0152C40.9577 22.0152 40.0247 21.8319 39.5948 21.4652C39.1649 21.0986 38.95 20.6423 38.95 20.1005V1.5236C38.95 1.00622 38.8296 0.635497 38.5845 0.403286C38.3395 0.171075 37.9483 0.0570068 37.4023 0.0570068H30.6527C30.1067 0.0570068 29.7155 0.171075 29.4704 0.403286C29.2254 0.635497 29.105 1.00622 29.105 1.5236V21.6893C29.105 22.94 29.2985 24.0725 29.6854 25.091C30.0723 26.1094 30.7602 26.9772 31.749 27.6982C32.7377 28.4193 34.092 28.9815 35.8116 29.3889C37.5313 29.7963 39.7238 30 42.3893 30C45.0547 30 47.2473 29.7963 48.9669 29.3889C50.6865 28.9815 52.0408 28.4193 53.0296 27.6982C54.0184 26.9772 54.7062 26.1094 55.0931 25.091C55.4801 24.0725 55.6735 22.94 55.6735 21.6893Z" fill="#363636"/>
<path d="M84.0907 2.2569C82.6591 0.790304 79.9936 0.0570068 76.0943 0.0570068H62.939C62.393 0.0570068 62.0018 0.171075 61.7568 0.403286C61.5117 0.635497 61.3913 1.00622 61.3913 1.5236V27.9223C61.3913 28.4397 61.5117 28.8104 61.7568 29.0426C62.0018 29.2748 62.393 29.3889 62.939 29.3889H69.6026C70.1486 29.3889 70.5399 29.2748 70.7849 29.0426C71.03 28.8104 71.1503 28.4397 71.1503 27.9223V21.1597H76.0943C79.9936 21.1597 82.6591 20.4264 84.0907 18.9598C85.5223 17.4932 86.2402 15.5785 86.2402 13.2156V8.00106C86.2402 5.63821 85.5223 3.72349 84.0907 2.2569ZM76.9541 11.8305C76.9541 12.3479 76.8252 12.8082 76.5672 13.2156C76.3093 13.623 75.7633 13.8267 74.9336 13.8267H71.0643V7.67515H74.9336C75.7633 7.67515 76.3093 7.87884 76.5672 8.28623C76.8252 8.69362 76.9541 9.15396 76.9541 9.67135V11.8305Z" fill="#363636"/>
<path d="M213.215 14.3563C212.944 13.2971 212.518 12.0627 211.946 10.6491L208.206 1.40138C208.034 0.941037 207.768 0.598832 207.411 0.382917C207.054 0.167001 206.602 0.0570068 206.057 0.0570068H194.492C193.92 0.0570068 193.452 0.167001 193.095 0.382917C192.738 0.598832 192.471 0.941037 192.299 1.40138L188.559 10.6491C187.987 12.0627 187.562 13.2971 187.291 14.3563C187.02 15.4155 186.882 16.3525 186.882 17.1673V27.9223C186.882 28.4397 187.003 28.8104 187.248 29.0426C187.493 29.2748 187.884 29.3889 188.43 29.3889H194.75C195.296 29.3889 195.687 29.2748 195.932 29.0426C196.177 28.8104 196.298 28.4397 196.298 27.9223V22.2189H203.907V27.9223C203.907 28.4397 204.045 28.8104 204.315 29.0426C204.586 29.2748 205.012 29.3889 205.584 29.3889H212.075C212.621 29.3889 213.012 29.2748 213.258 29.0426C213.503 28.8104 213.623 28.4397 213.623 27.9223V17.1673C213.623 16.3525 213.485 15.4155 213.215 14.3563ZM196.727 14.8044L198.748 8.61214C198.864 8.36771 198.984 8.19253 199.113 8.08254C199.242 7.97254 199.393 7.91958 199.565 7.91958H200.64C200.812 7.91958 200.962 7.97254 201.091 8.08254C201.22 8.19253 201.34 8.36771 201.456 8.61214L203.477 14.8044H196.727Z" fill="#363636"/>
<path d="M22.6993 2.2569C21.2677 0.790304 18.6023 0.0570068 14.703 0.0570068H1.54768C1.00169 0.0570068 0.610474 0.171075 0.365425 0.403286C0.120375 0.635497 0 1.00622 0 1.5236V27.9223C0 28.4397 0.120375 28.8104 0.365425 29.0426C0.610474 29.2748 1.00169 29.3889 1.54768 29.3889H8.21131C8.75729 29.3889 9.14851 29.2748 9.39356 29.0426C9.63861 28.8104 9.75899 28.4397 9.75899 27.9223V21.1597H14.703C18.6023 21.1597 21.2677 20.4264 22.6993 18.9598C24.1309 17.4932 24.8489 15.5785 24.8489 13.2156V8.00106C24.8489 5.63821 24.1309 3.72349 22.6993 2.2569ZM15.5628 11.8305C15.5628 12.3479 15.4338 12.8082 15.1759 13.2156C14.9179 13.623 14.3719 13.8267 13.5422 13.8267H9.67301V7.67515H13.5422C14.3719 7.67515 14.9179 7.87884 15.1759 8.28623C15.4338 8.69362 15.5628 9.15396 15.5628 9.67135V11.8305Z" fill="#363636"/>
<path d="M181.337 2.2569C179.905 0.790304 177.24 0.0570068 173.34 0.0570068H160.185C159.639 0.0570068 159.248 0.171075 159.003 0.403286C158.758 0.635497 158.637 1.00622 158.637 1.5236V27.9223C158.637 28.4397 158.758 28.8104 159.003 29.0426C159.248 29.2748 159.639 29.3889 160.185 29.3889H166.849C167.395 29.3889 167.786 29.2748 168.031 29.0426C168.276 28.8104 168.396 28.4397 168.396 27.9223V21.1597H173.34C177.24 21.1597 179.905 20.4264 181.337 18.9598C182.768 17.4932 183.486 15.5785 183.486 13.2156V8.00106C183.486 5.63821 182.768 3.72349 181.337 2.2569ZM174.2 11.8305C174.2 12.3479 174.071 12.8082 173.813 13.2156C173.555 13.623 173.009 13.8267 172.18 13.8267H168.31V7.67515H172.18C173.009 7.67515 173.555 7.87884 173.813 8.28623C174.071 8.69362 174.2 9.15396 174.2 9.67135V11.8305Z" fill="#363636"/>
<path d="M113.484 2.30989C112.061 0.835144 109.4 0.0896252 105.5 0.0692558L92.345 0C91.799 0 91.4035 0.109995 91.1627 0.338131C90.9177 0.566268 90.793 0.941065 90.7887 1.45845L90.6339 27.8571C90.6339 28.3745 90.75 28.7493 90.9907 28.9775C91.2315 29.2097 91.627 29.3278 92.173 29.3319L98.8366 29.3685C99.3826 29.3685 99.7738 29.2586 100.019 29.0304C100.264 28.8023 100.389 28.4275 100.393 27.9101L100.432 21.1475L105.376 21.1719C109.275 21.1923 111.945 20.4712 113.385 19.0128C114.825 17.5543 115.556 15.6437 115.569 13.2808L115.599 8.06627C115.612 5.70342 114.907 3.78463 113.484 2.30989ZM106.274 11.8305C106.274 12.3479 106.145 12.8083 105.887 13.2156C105.629 13.623 105.083 13.8267 104.253 13.8267H100.384V7.67518H104.253C105.083 7.67518 105.629 7.87887 105.887 8.28626C106.145 8.69364 106.274 9.15399 106.274 9.67137V11.8305Z" fill="#363636"/>
</g>
<defs>
<clipPath id="clip0_113_2653">
<rect width="277.895" height="30" fill="white"/>
</clipPath>
</defs>
</svg>
