<svg width="130" height="14" viewBox="0 0 130 14" fill="none" xmlns="http://www.w3.org/2000/svg">
<g clip-path="url(#clip0_117_4715)">
<path d="M63.538 13.7148C63.7928 13.7148 63.9754 13.6616 64.0898 13.5532C64.2041 13.4449 64.2603 13.2719 64.2603 13.0304V10.616L67.3098 6.69962C67.6047 6.30608 67.8053 5.96387 67.9117 5.673C68.018 5.38212 68.0722 4.94486 68.0722 4.36121V0.711022C68.0722 0.469577 68.016 0.296573 67.9016 0.188208C67.7873 0.0798433 67.6047 0.0266113 67.3499 0.0266113H64.3606C64.1058 0.0266113 63.9232 0.0798433 63.8089 0.188208C63.6945 0.296573 63.6383 0.469577 63.6383 0.711022V3.82889C63.6383 3.95627 63.6323 4.08935 63.6183 4.22813C63.6042 4.36692 63.5521 4.5 63.4578 4.62737L62.5349 5.99619C62.4687 6.11026 62.3985 6.19201 62.3242 6.24334C62.25 6.29467 62.1597 6.31939 62.0534 6.31939H61.8528C61.7464 6.31939 61.6562 6.29467 61.5819 6.24334C61.5077 6.19201 61.4375 6.11026 61.3713 5.99619L60.4484 4.62737C60.3541 4.5 60.3019 4.36692 60.2879 4.22813C60.2739 4.08935 60.2678 3.95627 60.2678 3.82889V0.711022C60.2678 0.469577 60.2117 0.296573 60.0973 0.188208C59.9829 0.0798433 59.8004 0.0266113 59.5456 0.0266113H56.456C56.2012 0.0266113 56.0186 0.0798433 55.9042 0.188208C55.7899 0.296573 55.7337 0.469577 55.7337 0.711022V4.36121C55.7337 4.94486 55.7839 5.38212 55.8842 5.673C55.9845 5.96387 56.1891 6.30608 56.4961 6.69962L59.5656 10.597V13.0304C59.5656 13.2719 59.6218 13.4449 59.7362 13.5532C59.8505 13.6616 60.0331 13.7148 60.2879 13.7148H63.538Z" fill="#363636"/>
<path d="M125.531 13.7148C126.815 13.7148 127.828 13.4258 128.571 12.8498C129.313 12.2738 129.684 11.4468 129.684 10.3688V8.37262C129.684 7.30798 129.397 6.54752 128.821 6.09125C128.246 5.63498 127.491 5.3441 126.554 5.21673L123.565 4.8365C123.391 4.82319 123.258 4.76045 123.164 4.64638C123.07 4.53231 123.023 4.39353 123.023 4.22813C123.023 4.06273 123.07 3.92775 123.164 3.81939C123.258 3.71102 123.391 3.65779 123.565 3.65779H128.24C128.494 3.65779 128.677 3.60456 128.791 3.49619C128.906 3.38783 128.962 3.21482 128.962 2.97338V0.711022C128.962 0.469577 128.906 0.296573 128.791 0.188208C128.677 0.0798433 128.494 0.0266113 128.24 0.0266113H122.622C121.324 0.0266113 120.309 0.315585 119.573 0.89163C118.836 1.46768 118.469 2.29467 118.469 3.37262V5.36882C118.469 6.43345 118.754 7.19391 119.322 7.65019C119.89 8.10646 120.642 8.39733 121.579 8.52471L124.588 8.92395C124.763 8.93726 124.893 8.99429 124.98 9.09505C125.066 9.19581 125.11 9.35551 125.11 9.57034C125.11 9.72243 125.066 9.85171 124.98 9.96007C124.893 10.0684 124.763 10.1217 124.588 10.1217H119.191C118.937 10.1217 118.754 10.1749 118.64 10.2833C118.525 10.3916 118.469 10.5646 118.469 10.8061V13.0304C118.469 13.2719 118.525 13.4449 118.64 13.5532C118.754 13.6616 118.937 13.7148 119.191 13.7148H125.531Z" fill="#363636"/>
<path d="M112.531 0.0266113C112.276 0.0266113 112.093 0.0798433 111.979 0.188208C111.865 0.296573 111.808 0.469577 111.808 0.711022V7.70722L110.645 5.31178C110.539 5.09695 110.398 4.94486 110.224 4.85551C110.049 4.76615 109.836 4.72243 109.582 4.72243H108.739C108.484 4.72243 108.271 4.76615 108.097 4.85551C107.922 4.94486 107.782 5.09695 107.676 5.31178L106.512 7.70722V0.711022C106.512 0.469577 106.456 0.296573 106.341 0.188208C106.227 0.0798433 106.045 0.0266113 105.79 0.0266113H102.7C102.445 0.0266113 102.263 0.0798433 102.148 0.188208C102.034 0.296573 101.978 0.469577 101.978 0.711022V8.04942C101.978 8.45437 101.994 8.83269 102.028 9.1806C102.062 9.52851 102.164 9.93726 102.339 10.4068L103.342 13.0304C103.408 13.2338 103.519 13.3973 103.673 13.5247C103.828 13.6521 104.01 13.7148 104.225 13.7148H106.873C107.088 13.7148 107.268 13.6673 107.415 13.5722C107.561 13.4772 107.662 13.3346 107.716 13.1445L108.659 10.0456C108.699 9.91825 108.749 9.83269 108.809 9.78897C108.869 9.74524 108.94 9.72243 109.02 9.72243H109.2C109.281 9.72243 109.351 9.74524 109.411 9.78897C109.471 9.83269 109.521 9.91825 109.561 10.0456L110.484 13.1445C110.539 13.3479 110.651 13.4924 110.825 13.5817C111 13.6711 111.193 13.7148 111.407 13.7148H114.076C114.29 13.7148 114.461 13.6483 114.587 13.5152C114.714 13.3821 114.812 13.2205 114.878 13.0304L115.881 10.4449C116.056 9.97528 116.158 9.56653 116.192 9.21863C116.226 8.87072 116.242 8.49239 116.242 8.08745V0.711022C116.242 0.469577 116.186 0.296573 116.072 0.188208C115.957 0.0798433 115.775 0.0266113 115.52 0.0266113H112.531Z" fill="#363636"/>
<path d="M25.981 10.1217V0.711022C25.981 0.469577 25.9248 0.296573 25.8104 0.188208C25.6961 0.0798433 25.5135 0.0266113 25.2587 0.0266113H22.2092C21.9544 0.0266113 21.7719 0.0798433 21.6575 0.188208C21.5431 0.296573 21.487 0.469577 21.487 0.711022V9.38022C21.487 9.63307 21.3867 9.846 21.186 10.0171C20.9854 10.1882 20.53 10.2738 19.8218 10.2738C19.1136 10.2738 18.6782 10.1882 18.4776 10.0171C18.277 9.846 18.1767 9.63307 18.1767 9.38022V0.711022C18.1767 0.469577 18.1205 0.296573 18.0061 0.188208C17.8918 0.0798433 17.7092 0.0266113 17.4544 0.0266113H14.3046C14.0498 0.0266113 13.8672 0.0798433 13.7529 0.188208C13.6385 0.296573 13.5823 0.469577 13.5823 0.711022V10.1217C13.5823 10.7053 13.6726 11.2338 13.8532 11.7091C14.0337 12.1844 14.3547 12.5893 14.8162 12.9259C15.2776 13.2624 15.9096 13.5247 16.7121 13.7148C17.5146 13.9049 18.5378 14 19.7817 14C21.0255 14 22.0487 13.9049 22.8512 13.7148C23.6537 13.5247 24.2857 13.2624 24.7471 12.9259C25.2086 12.5893 25.5296 12.1844 25.7101 11.7091C25.8907 11.2338 25.981 10.7053 25.981 10.1217Z" fill="#363636"/>
<path d="M39.2423 1.05323C38.5742 0.368817 37.3303 0.0266113 35.5107 0.0266113H29.3715C29.1167 0.0266113 28.9342 0.0798433 28.8198 0.188208C28.7055 0.296573 28.6493 0.469577 28.6493 0.711022V13.0304C28.6493 13.2719 28.7055 13.4449 28.8198 13.5532C28.9342 13.6616 29.1167 13.7148 29.3715 13.7148H32.4812C32.736 13.7148 32.9186 13.6616 33.033 13.5532C33.1473 13.4449 33.2035 13.2719 33.2035 13.0304V9.87452H35.5107C37.3303 9.87452 38.5742 9.53231 39.2423 8.8479C39.9104 8.16349 40.2454 7.26996 40.2454 6.16729V3.73384C40.2454 2.63117 39.9104 1.73764 39.2423 1.05323ZM35.9119 5.52091C35.9119 5.76235 35.8517 5.97718 35.7314 6.16729C35.611 6.35741 35.3562 6.45247 34.969 6.45247H33.1634V3.58174H34.969C35.3562 3.58174 35.611 3.6768 35.7314 3.86692C35.8517 4.05703 35.9119 4.27186 35.9119 4.5133V5.52091Z" fill="#363636"/>
<path d="M99.5001 6.69962C99.3737 6.20532 99.1751 5.62927 98.9083 4.96958L97.1628 0.653988C97.0826 0.439159 96.9582 0.279463 96.7917 0.178703C96.6252 0.0779421 96.4145 0.0266113 96.1597 0.0266113H90.7629C90.4961 0.0266113 90.2774 0.0779421 90.1109 0.178703C89.9443 0.279463 89.8199 0.439159 89.7397 0.653988L87.9943 4.96958C87.7274 5.62927 87.5288 6.20532 87.4024 6.69962C87.276 7.19391 87.2118 7.63117 87.2118 8.0114V13.0304C87.2118 13.2719 87.268 13.4449 87.3823 13.5532C87.4967 13.6616 87.6793 13.7148 87.9341 13.7148H90.8833C91.1381 13.7148 91.3206 13.6616 91.435 13.5532C91.5493 13.4449 91.6055 13.2719 91.6055 13.0304V10.3688H95.1566V13.0304C95.1566 13.2719 95.2208 13.4449 95.3472 13.5532C95.4736 13.6616 95.6722 13.7148 95.939 13.7148H98.9685C99.2233 13.7148 99.4058 13.6616 99.5202 13.5532C99.6345 13.4449 99.6907 13.2719 99.6907 13.0304V8.0114C99.6907 7.63117 99.6265 7.19391 99.5001 6.69962ZM91.8061 6.90874L92.7491 4.01901C92.8032 3.90494 92.8594 3.82319 92.9196 3.77186C92.9798 3.72053 93.05 3.69581 93.1303 3.69581H93.6318C93.7121 3.69581 93.7823 3.72053 93.8425 3.77186C93.9027 3.82319 93.9588 3.90494 94.013 4.01901L94.956 6.90874H91.8061Z" fill="#363636"/>
<path d="M10.593 1.05323C9.92493 0.368817 8.68106 0.0266113 6.86139 0.0266113H0.722251C0.467457 0.0266113 0.284888 0.0798433 0.170532 0.188208C0.0561751 0.296573 0 0.469577 0 0.711022V13.0304C0 13.2719 0.0561751 13.4449 0.170532 13.5532C0.284888 13.6616 0.467457 13.7148 0.722251 13.7148H3.83194C4.08674 13.7148 4.26931 13.6616 4.38366 13.5532C4.49802 13.4449 4.55419 13.2719 4.55419 13.0304V9.87452H6.86139C8.68106 9.87452 9.92493 9.53231 10.593 8.8479C11.2611 8.16349 11.5961 7.26996 11.5961 6.16729V3.73384C11.5961 2.63117 11.2611 1.73764 10.593 1.05323ZM7.26264 5.52091C7.26264 5.76235 7.20245 5.97718 7.08207 6.16729C6.9617 6.35741 6.7069 6.45247 6.3197 6.45247H4.51407V3.58174H6.3197C6.7069 3.58174 6.9617 3.6768 7.08207 3.86692C7.20245 4.05703 7.26264 4.27186 7.26264 4.5133V5.52091Z" fill="#363636"/>
<path d="M84.6237 1.05323C83.9557 0.368817 82.7118 0.0266113 80.8921 0.0266113H74.753C74.4982 0.0266113 74.3156 0.0798433 74.2013 0.188208C74.0869 0.296573 74.0307 0.469577 74.0307 0.711022V13.0304C74.0307 13.2719 74.0869 13.4449 74.2013 13.5532C74.3156 13.6616 74.4982 13.7148 74.753 13.7148H77.8627C78.1175 13.7148 78.3 13.6616 78.4144 13.5532C78.5288 13.4449 78.5849 13.2719 78.5849 13.0304V9.87452H80.8921C82.7118 9.87452 83.9557 9.53231 84.6237 8.8479C85.2918 8.16349 85.6269 7.26996 85.6269 6.16729V3.73384C85.6269 2.63117 85.2918 1.73764 84.6237 1.05323ZM81.2934 5.52091C81.2934 5.76235 81.2332 5.97718 81.1128 6.16729C80.9924 6.35741 80.7376 6.45247 80.3504 6.45247H78.5448V3.58174H80.3504C80.7376 3.58174 80.9924 3.6768 81.1128 3.86692C81.2332 4.05703 81.2934 4.27186 81.2934 4.5133V5.52091Z" fill="#363636"/>
<path d="M52.9591 1.07795C52.295 0.389734 51.0531 0.0418251 49.2335 0.0323194L43.0943 0C42.8395 0 42.655 0.0513308 42.5426 0.157795C42.4282 0.264259 42.3701 0.439163 42.3681 0.680608L42.2958 13C42.2958 13.2414 42.35 13.4163 42.4624 13.5228C42.5747 13.6312 42.7593 13.6863 43.0141 13.6882L46.1238 13.7053C46.3786 13.7053 46.5611 13.654 46.6755 13.5475C46.7898 13.4411 46.848 13.2662 46.85 13.0247L46.8681 9.86882L49.1753 9.88023C50.9949 9.88973 52.2408 9.55323 52.9129 8.87262C53.585 8.19201 53.9261 7.30038 53.9321 6.19772L53.9462 3.76426C53.9522 2.6616 53.6231 1.76616 52.9591 1.07795ZM49.5946 5.52091C49.5946 5.76236 49.5344 5.97719 49.414 6.1673C49.2936 6.35741 49.0389 6.45247 48.6516 6.45247H46.846V3.58175H48.6516C49.0389 3.58175 49.2936 3.67681 49.414 3.86692C49.5344 4.05703 49.5946 4.27186 49.5946 4.51331V5.52091Z" fill="#363636"/>
</g>
<defs>
<clipPath id="clip0_117_4715">
<rect width="129.684" height="14" fill="white"/>
</clipPath>
</defs>
</svg>
